<svg width="26" height="26" viewBox="0 0 26 26" fill="none" xmlns="http://www.w3.org/2000/svg">
<path d="M12.0559 16.6212L6.39493 11.191C6.26979 11.072 6.17046 10.9303 6.10268 10.7742C6.0349 10.6182 6 10.4508 6 10.2817C6 10.1126 6.0349 9.94525 6.10268 9.78919C6.17046 9.63312 6.26979 9.49148 6.39493 9.37242C6.64509 9.13389 6.98348 9 7.3362 9C7.68893 9 8.02732 9.13389 8.27747 9.37242L13.0039 13.9061L17.7302 9.37242C17.9804 9.13389 18.3188 9 18.6715 9C19.0242 9 19.3626 9.13389 19.6128 9.37242C19.7365 9.49209 19.8344 9.63401 19.9009 9.79005C19.9673 9.94608 20.001 10.1132 20 10.2817C20.001 10.4503 19.9673 10.6173 19.9009 10.7734C19.8344 10.9294 19.7365 11.0713 19.6128 11.191L13.9518 16.6212C13.8277 16.7412 13.68 16.8365 13.5173 16.9015C13.3546 16.9665 13.1801 17 13.0039 17C12.8276 17 12.6531 16.9665 12.4904 16.9015C12.3277 16.8365 12.18 16.7412 12.0559 16.6212Z" fill="#2B2B2B"/>
</svg>
